<svg width="44" height="33" viewBox="0 0 44 33" fill="none" xmlns="http://www.w3.org/2000/svg">
<path d="M0 14.8889H10.672C10.4896 22.6667 8.28355 23.5496 5.51289 23.8016L4.44444 23.934V32.4864L5.676 32.4204C9.294 32.2169 13.294 31.5647 15.9627 28.2702C18.302 25.3822 19.3333 20.664 19.3333 13.4211V0H0V14.8889Z" fill="white"/>
<path d="M24.6665 0V14.8889H35.1961C35.0136 22.6667 32.8789 23.5496 30.1083 23.8016L29.1109 23.934V32.4864L30.2714 32.4204C33.8894 32.2169 37.9252 31.5647 40.5938 28.2702C42.9329 25.3822 43.9998 20.664 43.9998 13.4211V0H24.6665Z" fill="white"/>
</svg>
