<svg width="27" height="28" viewBox="0 0 27 28" fill="none" xmlns="http://www.w3.org/2000/svg">
<path d="M5.09558 0.0114732C5.08155 0.0201956 4.97103 0.0393859 4.84999 0.0550863C4.26759 0.131844 3.8571 0.231279 3.40977 0.407472C2.90806 0.602854 2.49055 0.878484 2.08708 1.27797C1.17839 2.17813 0.574939 3.50393 0.246899 5.32518C0.231111 5.41066 0.21006 5.52579 0.201289 5.57813C0.190763 5.63046 0.174975 5.74036 0.166204 5.82235C0.155679 5.90435 0.136382 6.06135 0.122349 6.17125C-0.0530741 7.55812 -0.0390403 9.40727 0.159187 11.2128C0.480211 14.1505 1.21348 17.179 2.30285 20.0661C3.26943 22.6287 4.5237 24.9524 5.685 26.3305C5.92182 26.6114 6.36915 27.0562 6.57966 27.222C6.99365 27.5464 7.38134 27.7523 7.73745 27.8343C8.08654 27.9145 8.21109 27.9232 8.47422 27.8814C8.74613 27.8378 8.92681 27.7401 9.17767 27.5011C9.36888 27.3179 9.50044 27.1574 9.70218 26.8521C9.96531 26.4561 10.1811 26.0566 10.8933 24.6454C11.9388 22.5781 12.4019 21.7809 13.1282 20.8075C14.7666 18.6112 16.7822 17.3865 19.1996 17.1179C19.5627 17.076 19.6907 17.0673 19.6907 17.0848C19.6907 17.0935 19.6258 17.1162 19.5451 17.1336C18.675 17.3325 17.6822 17.7599 16.8928 18.2727C16.363 18.6182 15.87 19.0159 15.342 19.5253C15.0508 19.8062 14.1825 20.7569 14.1825 20.7935C14.1825 20.8005 14.2421 20.8337 14.3158 20.8668C14.6824 21.036 14.8631 21.2192 15.1034 21.671C15.1596 21.7757 15.2438 21.9292 15.2911 22.0077C15.7455 22.7805 16.2244 23.9144 16.5507 24.9943C16.5805 25.0954 16.6121 25.1966 16.6208 25.221C16.6419 25.2821 16.7138 25.5176 16.7612 25.6746C17.1226 26.8975 17.3243 27.3563 17.6383 27.6651C17.8856 27.9075 18.1505 27.9983 18.6119 28C18.8452 28 18.9154 27.9913 19.182 27.9302C21.0099 27.515 23.0448 24.7587 24.6324 20.5545C24.8903 19.8724 25.292 18.6775 25.4446 18.1384C25.485 18.0006 25.5779 17.6779 25.6025 17.5889C25.6849 17.3063 25.899 16.4916 25.9586 16.2282C25.9744 16.1602 26.0112 16.0032 26.041 15.8793C26.0709 15.7537 26.106 15.6054 26.12 15.5479C26.1586 15.3839 26.2814 14.796 26.3129 14.632C26.3287 14.55 26.348 14.4523 26.3568 14.4139C26.3656 14.3756 26.3866 14.2726 26.4007 14.1872C26.4164 14.0999 26.441 13.9708 26.4533 13.8993C26.4673 13.8278 26.4901 13.6935 26.5059 13.6028C26.5217 13.512 26.541 13.3934 26.5515 13.3411C26.5603 13.2888 26.5796 13.1666 26.5936 13.0707C26.6094 12.9747 26.6287 12.8491 26.6392 12.7916C26.648 12.734 26.6638 12.6276 26.6726 12.5561C26.6831 12.4845 26.7024 12.3345 26.7182 12.2246C26.7936 11.6611 26.855 11.0855 26.8989 10.5325C26.9094 10.4034 26.9269 10.2028 26.9357 10.0876C26.9445 9.97249 26.9603 9.63406 26.9708 9.33749C26.9796 9.03919 26.9918 8.69378 26.9971 8.56992C27.0111 8.18613 26.9725 7.12897 26.9182 6.46781C26.9006 6.25324 26.8918 6.17474 26.8392 5.77002C26.5726 3.77607 25.9744 2.28977 25.0675 1.38264C24.4868 0.799981 23.8377 0.487719 22.9098 0.342926C22.8431 0.332459 22.7168 0.313269 22.6291 0.299313C22.0274 0.203367 21.5169 0.164988 20.8573 0.164988C19.6171 0.164988 18.554 0.335948 17.3752 0.728458C13.4475 2.03159 9.8548 5.60953 6.8463 11.2128C6.00427 12.7829 5.15172 14.6111 4.48686 16.2805C4.39564 16.5108 4.3132 16.7062 4.30442 16.7149C4.27636 16.7446 4.28688 16.6591 4.33249 16.4655C4.38687 16.2457 4.43775 16.0293 4.47634 15.8619C4.50967 15.7153 4.6886 15.0053 4.75175 14.7716C4.8342 14.4593 5.06576 13.6446 5.09383 13.5679C5.1026 13.5434 5.13593 13.4423 5.16575 13.3411C5.22364 13.1492 5.36749 12.7009 5.3938 12.6258C5.40257 12.6014 5.4552 12.4531 5.50782 12.2944C6.74105 8.69552 8.51808 5.52405 10.76 2.92651C11.0494 2.59157 11.4055 2.2008 11.6599 1.93913C11.7739 1.82225 11.8669 1.71933 11.8669 1.70886C11.8669 1.68444 11.4932 1.46463 11.1529 1.29193C10.1688 0.787771 9.14258 0.435383 8.01637 0.215578C7.50589 0.114398 7.41818 0.100443 7.07786 0.0638084C6.98664 0.055086 6.86735 0.0376414 6.81472 0.0271745C6.69719 0.00275169 5.13417 -0.0112051 5.09558 0.0114732Z" fill="#fff"/>
</svg>
