<svg width="22" height="25" viewBox="0 0 22 25" fill="none" xmlns="http://www.w3.org/2000/svg">
<path d="M2.75015 14.9968L16.1819 14.998C16.309 15.213 16.463 15.4118 16.6463 15.5894L17.5252 16.442C17.4113 16.8822 17.2385 17.3042 17.0118 17.696C16.7818 18.1048 16.4994 18.4803 16.1721 18.8125L15.2016 18.4812C14.6451 18.2938 14.0438 18.2984 13.4901 18.4942C12.9363 18.69 12.4607 19.0662 12.1361 19.5652L11.2548 20.8904C10.882 21.4542 10.7111 22.1325 10.7713 22.8104C10.8314 23.4883 11.1189 24.124 11.5848 24.6099L11.8623 24.895C11.1998 24.965 10.5056 25 9.77464 25C6.24222 25 3.50674 24.1798 1.59631 22.4995C1.09558 22.0594 0.693709 21.5138 0.418196 20.9001C0.142684 20.2864 3.18181e-05 19.6191 0 18.9438V17.8098C0 17.4404 0.0711347 17.0746 0.209343 16.7333C0.34755 16.392 0.550125 16.0819 0.8055 15.8207C1.06087 15.5595 1.36405 15.3523 1.69771 15.2109C2.03137 15.0695 2.38899 14.9968 2.75015 14.9968ZM17.7366 11.3185C18.0251 10.6234 18.7157 10.2445 19.394 10.3896L19.5383 10.4271L20.3083 10.6796C21.0722 10.9297 21.6577 11.5986 21.8472 12.4387C22.2958 14.4366 21.7567 16.8684 20.2313 19.7352C18.7071 22.5983 17.0362 24.3186 15.2199 24.8987C14.8731 25.0086 14.5047 25.027 14.149 24.952C13.7934 24.877 13.4621 24.7111 13.186 24.4699L13.0357 24.3286L12.4502 23.7285C12.2041 23.4693 12.0451 23.1366 11.9963 22.7787C11.9475 22.4208 12.0115 22.0563 12.1789 21.7381L12.2657 21.5931L13.1469 20.2678C13.4941 19.7465 14.0881 19.5002 14.6601 19.6239L14.8154 19.6677L16.4434 20.2228C17.1041 19.7074 17.6569 19.0616 18.0691 18.3237C18.4255 17.7106 18.6722 17.0374 18.7976 16.3358L18.844 15.9982L17.4885 14.6829C17.2696 14.4649 17.114 14.1891 17.0389 13.8861C16.9638 13.5831 16.9722 13.2648 17.0631 12.9663L17.1206 12.8038L17.7366 11.3185ZM9.77464 0C10.5772 -1.22327e-08 11.3719 0.161693 12.1134 0.475848C12.8549 0.790003 13.5286 1.25047 14.0961 1.83095C14.6636 2.41143 15.1137 3.10056 15.4209 3.859C15.728 4.61744 15.8861 5.43033 15.8861 6.25125C15.8861 7.07218 15.728 7.88506 15.4209 8.6435C15.1137 9.40194 14.6636 10.0911 14.0961 10.6716C13.5286 11.252 12.8549 11.7125 12.1134 12.0267C11.3719 12.3408 10.5772 12.5025 9.77464 12.5025C8.15378 12.5025 6.59931 11.8439 5.4532 10.6716C4.30708 9.49922 3.6632 7.90919 3.6632 6.25125C3.6632 4.59332 4.30708 3.00329 5.4532 1.83095C6.59931 0.658612 8.15378 0 9.77464 0Z" fill="#006069"/>
</svg>
