<svg width="61" height="50" viewBox="0 0 61 50" fill="none" xmlns="http://www.w3.org/2000/svg">
<rect x="0.5" y="0.5" width="60" height="49" rx="19.5" fill="white" stroke="#015E5F"/>
<path fill-rule="evenodd" clip-rule="evenodd" d="M20.0638 12.8291C20.3481 12.5451 20.6895 12.3249 21.0654 12.1829C21.4413 12.0409 21.843 11.9805 22.2441 12.0055C22.6451 12.0306 23.0362 12.1406 23.3915 12.3282C23.7468 12.5158 24.0581 12.7769 24.3049 13.094L27.2217 16.8414C27.7563 17.5288 27.9448 18.4242 27.7336 19.2692L26.8447 22.8281C26.7988 23.0125 26.8012 23.2056 26.8519 23.3887C26.9026 23.5717 26.9998 23.7386 27.1339 23.8731L31.1264 27.8659C31.2611 28.0004 31.4282 28.0977 31.6116 28.1484C31.795 28.1991 31.9884 28.2014 32.1729 28.1551L35.7299 27.2662C36.1469 27.162 36.5821 27.1539 37.0027 27.2425C37.4233 27.3312 37.8182 27.5144 38.1576 27.7781L41.9047 30.6935C43.2518 31.7417 43.3753 33.7324 42.1696 34.9366L40.4894 36.6169C39.2869 37.8195 37.4897 38.3476 35.8144 37.7577C31.5265 36.2489 27.6333 33.7939 24.4235 30.5749C21.205 27.3654 18.7502 23.4724 17.2413 19.1847C16.653 17.5109 17.1811 15.7119 18.3836 14.5094L20.0638 12.8291Z" fill="#015E5F"/>
</svg>
