<svg width="26" height="29" viewBox="0 0 26 29" fill="none" xmlns="http://www.w3.org/2000/svg">
<path d="M3.25017 17.3962L19.124 17.3977C19.2743 17.6471 19.4563 17.8777 19.6729 18.0837L20.7116 19.0728C20.577 19.5834 20.3728 20.0729 20.1049 20.5274C19.8331 21.0016 19.4993 21.4372 19.1125 21.8225L17.9655 21.4382C17.3078 21.2208 16.5972 21.2261 15.9428 21.4532C15.2884 21.6804 14.7262 22.1168 14.3427 22.6956L13.3012 24.2329C12.8605 24.8869 12.6586 25.6737 12.7297 26.46C12.8008 27.2464 13.1405 27.9839 13.6912 28.5475L14.0191 28.8782C13.2362 28.9594 12.4157 29 11.5518 29C7.37717 29 4.14433 28.0486 1.88655 26.0994C1.29477 25.5889 0.819838 24.956 0.494232 24.2441C0.168627 23.5323 3.76033e-05 22.7582 0 21.9748V20.6594C0 20.2309 0.0840683 19.8065 0.247405 19.4106C0.410741 19.0147 0.650147 18.655 0.951954 18.352C1.25376 18.049 1.61206 17.8086 2.00639 17.6446C2.40072 17.4806 2.82336 17.3962 3.25017 17.3962ZM20.2334 14.851L20.9615 13.1295C21.3024 12.3231 22.1185 11.8837 22.9202 12.0519L23.0907 12.0954L24.0007 12.3884C24.9036 12.6784 25.5955 13.4543 25.8194 14.4289C26.3495 16.7465 25.7125 19.5673 23.9097 22.8928C22.1084 26.214 20.1337 28.2096 17.9872 28.8825C17.5773 29.01 17.1419 29.0313 16.7216 28.9443C16.3013 28.8573 15.9098 28.6649 15.5835 28.3851L15.4058 28.2212L14.7139 27.5251C14.423 27.2244 14.2351 26.8384 14.1775 26.4233C14.1198 26.0081 14.1954 25.5853 14.3932 25.2162L14.4958 25.048L15.5373 23.5107C15.9475 22.9059 16.6496 22.6202 17.3256 22.7638L17.5091 22.8145L19.4332 23.4584C20.2139 22.8606 20.8672 22.1114 21.3544 21.2555C21.7756 20.5443 22.0672 19.7634 22.2153 18.9495L22.2702 18.5579L20.6682 17.0322C20.4095 16.7792 20.2256 16.4593 20.1369 16.1078C20.0481 15.7564 20.058 15.3871 20.1655 15.041L20.2334 14.8524L20.9615 13.1295L20.2334 14.851ZM11.5518 0C12.5003 -1.419e-08 13.4395 0.187564 14.3158 0.551984C15.1921 0.916403 15.9883 1.45054 16.659 2.1239C17.3297 2.79726 17.8617 3.59665 18.2247 4.47644C18.5876 5.35623 18.7745 6.29918 18.7745 7.25145C18.7745 8.20372 18.5876 9.14667 18.2247 10.0265C17.8617 10.9062 17.3297 11.7056 16.659 12.379C15.9883 13.0524 15.1921 13.5865 14.3158 13.9509C13.4395 14.3153 12.5003 14.5029 11.5518 14.5029C9.63629 14.5029 7.79919 13.7389 6.44469 12.379C5.09018 11.0191 4.32923 9.17465 4.32923 7.25145C4.32923 5.32825 5.09018 3.48381 6.44469 2.1239C7.79919 0.76399 9.63629 0 11.5518 0Z" fill="black"/>
</svg>
