<svg width="23" height="26" viewBox="0 0 23 26" fill="none" xmlns="http://www.w3.org/2000/svg">
<path d="M3.45816 15.36L16.8899 15.3613C17.017 15.5763 17.171 15.7751 17.3543 15.9527L18.2332 16.8053C18.1193 17.2455 17.9465 17.6675 17.7198 18.0593C17.4898 18.4681 17.2074 18.8436 16.8801 19.1758L15.9096 18.8445C15.3531 18.6571 14.7518 18.6617 14.1981 18.8575C13.6443 19.0533 13.1687 19.4295 12.8441 19.9284L11.9628 21.2537C11.59 21.8175 11.4191 22.4958 11.4793 23.1737C11.5394 23.8515 11.8269 24.4873 12.2929 24.9732L12.5703 25.2583C11.9078 25.3283 11.2136 25.3633 10.4826 25.3633C6.95023 25.3633 4.21475 24.5431 2.30432 22.8628C1.80359 22.4227 1.40172 21.8771 1.1262 21.2634C0.850692 20.6497 0.70804 19.9824 0.708008 19.3071V18.1731C0.708008 17.8037 0.779143 17.4379 0.91735 17.0966C1.05556 16.7553 1.25813 16.4452 1.51351 16.184C1.76888 15.9227 2.07206 15.7155 2.40572 15.5742C2.73938 15.4328 3.097 15.36 3.45816 15.36ZM18.4446 11.6818C18.7331 10.9867 19.4237 10.6078 20.1021 10.7529L20.2463 10.7904L21.0163 11.0429C21.7803 11.293 22.3657 11.9619 22.5552 12.802C23.0038 14.7999 22.4647 17.2317 20.9393 20.0985C19.4151 22.9616 17.7443 24.6819 15.9279 25.262C15.5811 25.3719 15.2127 25.3902 14.8571 25.3153C14.5014 25.2403 14.1701 25.0744 13.894 24.8332L13.7437 24.6919L13.1582 24.0918C12.9121 23.8326 12.7531 23.4999 12.7043 23.142C12.6555 22.7841 12.7195 22.4196 12.8869 22.1014L12.9737 21.9564L13.8549 20.6311C14.2021 20.1097 14.7961 19.8634 15.3681 19.9872L15.5234 20.031L17.1514 20.5861C17.8121 20.0707 18.3649 19.4249 18.7771 18.6869C19.1335 18.0739 19.3802 17.4007 19.5056 16.6991L19.552 16.3615L18.1965 15.0462C17.9776 14.8281 17.822 14.5523 17.7469 14.2494C17.6718 13.9464 17.6802 13.628 17.7711 13.3296L17.8286 13.1671L18.4446 11.6818ZM10.4826 0.363281C11.2852 0.363281 12.0799 0.524974 12.8214 0.839129C13.5629 1.15328 14.2366 1.61375 14.8041 2.19423C15.3716 2.77471 15.8217 3.46385 16.1289 4.22228C16.436 4.98072 16.5941 5.79361 16.5941 6.61453C16.5941 7.43546 16.436 8.24835 16.1289 9.00678C15.8217 9.76522 15.3716 10.4544 14.8041 11.0348C14.2366 11.6153 13.5629 12.0758 12.8214 12.3899C12.0799 12.7041 11.2852 12.8658 10.4826 12.8658C8.86179 12.8658 7.30732 12.2072 6.1612 11.0348C5.01509 9.8625 4.3712 8.27247 4.3712 6.61453C4.3712 4.9566 5.01509 3.36657 6.1612 2.19423C7.30732 1.02189 8.86179 0.363281 10.4826 0.363281Z" fill="white"/>
</svg>
