<svg width="98" height="103" viewBox="0 0 98 103" fill="none" xmlns="http://www.w3.org/2000/svg">
<path d="M18.4951 0.0421971C18.4441 0.0742832 18.043 0.144873 17.6037 0.202628C15.4898 0.484985 13.9998 0.850766 12.3762 1.49891C10.5552 2.21763 9.03979 3.23155 7.57534 4.7011C4.27713 8.01238 2.08682 12.8895 0.896151 19.589C0.838846 19.9035 0.76244 20.327 0.730604 20.5195C0.692401 20.712 0.635096 21.1163 0.60326 21.4179C0.565057 21.7196 0.495018 22.2971 0.44408 22.7014C-0.192639 27.8031 -0.141702 34.6053 0.577791 41.2471C1.74299 52.0537 4.40447 63.194 8.3585 73.8145C11.8668 83.2414 16.4194 91.7891 20.6344 96.8587C21.494 97.8919 23.1177 99.5283 23.8817 100.138C25.3844 101.332 26.7915 102.089 28.0841 102.39C29.3511 102.686 29.8032 102.718 30.7583 102.564C31.7452 102.403 32.401 102.044 33.3115 101.165C34.0056 100.491 34.4831 99.9005 35.2153 98.7775C36.1704 97.3208 36.9536 95.8512 39.5386 90.6597C43.3335 83.0553 45.0144 80.1226 47.6504 76.5418C53.5974 68.4625 60.9133 63.9577 69.6873 62.9694C71.0053 62.8154 71.4701 62.7833 71.4701 62.8475C71.4701 62.8796 71.2345 62.963 70.9416 63.0272C67.7835 63.7587 64.1797 65.3309 61.3144 67.2176C59.3915 68.4882 57.6024 69.9513 55.6858 71.8252C54.6289 72.8583 51.4771 76.3557 51.4771 76.4905C51.4771 76.5162 51.6936 76.6381 51.961 76.76C53.2918 77.3825 53.9476 78.0563 54.8199 79.7183C55.0237 80.1034 55.3293 80.6681 55.5012 80.9569C57.1503 83.7997 58.8885 87.9709 60.0728 91.9431C60.1811 92.3153 60.2957 92.6875 60.3275 92.7774C60.4039 93.002 60.665 93.8683 60.8369 94.4459C62.1485 98.9443 62.8808 100.632 64.0205 101.768C64.9183 102.66 65.8797 102.994 67.5543 103C68.4011 103 68.6558 102.968 69.6236 102.743C76.2582 101.216 83.6442 91.0768 89.4065 75.6113C90.3425 73.1022 91.8006 68.7064 92.3545 66.7235C92.501 66.2165 92.8384 65.0293 92.9276 64.7021C93.2268 63.6625 94.0036 60.6656 94.2201 59.6966C94.2774 59.4464 94.4111 58.8688 94.5194 58.4132C94.6276 57.9511 94.7549 57.4057 94.8059 57.1939C94.946 56.5907 95.3917 54.4281 95.5063 53.8249C95.5636 53.5233 95.6336 53.1639 95.6654 53.0227C95.6973 52.8815 95.7737 52.5029 95.8246 52.1885C95.8819 51.8676 95.9711 51.3928 96.0156 51.1296C96.0666 50.8665 96.1494 50.3724 96.2067 50.0387C96.264 49.705 96.334 49.2687 96.3722 49.0761C96.404 48.8836 96.4741 48.4344 96.525 48.0815C96.5823 47.7285 96.6524 47.2665 96.6906 47.0547C96.7224 46.8429 96.7797 46.4515 96.8115 46.1884C96.8497 45.9253 96.9198 45.3734 96.9771 44.9691C97.2509 42.8964 97.4737 40.7787 97.6329 38.7444C97.6711 38.2695 97.7348 37.5316 97.7666 37.108C97.7985 36.6845 97.8558 35.4396 97.894 34.3486C97.9258 33.2513 97.9704 31.9807 97.9895 31.5251C98.0404 30.1133 97.9003 26.2244 97.7029 23.7923C97.6393 23.003 97.6074 22.7142 97.4164 21.2254C96.4486 13.8905 94.2774 8.42308 90.9856 5.08613C88.878 2.94278 86.5222 1.7941 83.1539 1.26147C82.912 1.22296 82.4535 1.15238 82.1352 1.10104C79.9512 0.748091 78.0984 0.606912 75.7043 0.606912C71.2027 0.606912 67.3442 1.2358 63.0654 2.67967C48.8093 7.47333 35.7693 20.635 24.8495 41.2471C21.7933 47.0226 18.6988 53.7479 16.2857 59.8891C15.9546 60.7362 15.6553 61.4549 15.6235 61.487C15.5216 61.5961 15.5598 61.2817 15.7253 60.5694C15.9227 59.7608 16.1074 58.9651 16.2475 58.349C16.3684 57.81 17.0179 55.1982 17.2471 54.3383C17.5464 53.1896 18.3868 50.1927 18.4887 49.9104C18.5205 49.8205 18.6415 49.4483 18.7498 49.0761C18.9599 48.3702 19.482 46.721 19.5775 46.4451C19.6093 46.3552 19.8003 45.8098 19.9914 45.2258C24.4675 31.9871 30.9175 20.3206 39.0547 10.7654C40.1053 9.53326 41.3979 8.0958 42.3211 7.13322C42.735 6.70327 43.0724 6.32465 43.0724 6.28615C43.0724 6.19631 41.7162 5.38774 40.481 4.75243C36.909 2.89786 33.1842 1.60158 29.0964 0.793011C27.2436 0.420813 26.9252 0.369475 25.69 0.234714C25.3589 0.202628 24.9259 0.138455 24.7349 0.0999521C24.3083 0.0101111 18.6351 -0.0412267 18.4951 0.0421971Z" fill="#006069"/>
</svg>
