<svg width="38" height="38" viewBox="0 0 38 38" fill="none" xmlns="http://www.w3.org/2000/svg">
<path d="M18.9998 33.2499C17 31.5441 15.1463 29.674 13.4582 27.6592C10.9248 24.6334 7.91651 20.1273 7.91651 15.8333C7.91541 13.6403 8.56489 11.4963 9.78277 9.67257C11.0006 7.84885 12.7322 6.42742 14.7582 5.58816C16.7842 4.74889 19.0137 4.52953 21.1644 4.95782C23.3152 5.38611 25.2905 6.44282 26.8405 7.99419C27.8724 9.02155 28.6904 10.2434 29.247 11.589C29.8036 12.9345 30.0878 14.3771 30.0832 15.8333C30.0832 20.1273 27.0748 24.6334 24.5415 27.6592C22.8534 29.674 20.9997 31.5441 18.9998 33.2499ZM18.9998 11.0833C17.7401 11.0833 16.5319 11.5837 15.6411 12.4745C14.7503 13.3653 14.2498 14.5735 14.2498 15.8333C14.2498 17.0931 14.7503 18.3012 15.6411 19.192C16.5319 20.0828 17.7401 20.5833 18.9998 20.5833C20.2596 20.5833 21.4678 20.0828 22.3586 19.192C23.2494 18.3012 23.7498 17.0931 23.7498 15.8333C23.7498 14.5735 23.2494 13.3653 22.3586 12.4745C21.4678 11.5837 20.2596 11.0833 18.9998 11.0833Z" fill="white"/>
</svg>
