<svg width="28" height="28" viewBox="0 0 28 28" fill="none" xmlns="http://www.w3.org/2000/svg">
<g clip-path="url(#clip0_96_2037)">
<path fill-rule="evenodd" clip-rule="evenodd" d="M3.2986 0.894263C3.6048 0.588518 3.97249 0.35134 4.37729 0.198445C4.78209 0.0455508 5.21477 -0.0195684 5.64664 0.00740297C6.07851 0.0343743 6.49972 0.15282 6.88236 0.354892C7.26499 0.556963 7.60031 0.838046 7.8661 1.17951L11.0073 5.21501C11.5831 5.95526 11.7861 6.91951 11.5586 7.82951L10.6013 11.662C10.5519 11.8605 10.5545 12.0684 10.6091 12.2656C10.6637 12.4628 10.7683 12.6425 10.9128 12.7873L15.2126 17.087C15.3576 17.2318 15.5376 17.3366 15.7351 17.3912C15.9326 17.4458 16.1408 17.4483 16.3396 17.3985L20.1703 16.4413C20.6194 16.329 21.0881 16.3203 21.5411 16.4158C21.994 16.5113 22.4193 16.7085 22.7848 16.9925L26.8203 20.132C28.2711 21.2608 28.4041 23.4045 27.1056 24.7013L25.2961 26.5108C24.0011 27.8058 22.0656 28.3745 20.2613 27.7393C15.6434 26.1144 11.4506 23.4707 7.99385 20.0043C4.5276 16.548 1.88391 12.3558 0.258848 7.73851C-0.374652 5.93601 0.194098 3.99876 1.4891 2.70376L3.2986 0.894263Z" fill="white"/>
</g>
<defs>
<clipPath id="clip0_96_2037">
<rect width="28" height="28" fill="white"/>
</clipPath>
</defs>
</svg>
