<svg width="22" height="24" viewBox="0 0 22 24" fill="none" xmlns="http://www.w3.org/2000/svg">
<path d="M10.6863 0.879126C10.5015 0.879672 10.3207 0.932953 10.1651 1.03271C10.0094 1.13246 9.88547 1.27455 9.80774 1.44225L0.190092 22.0306C0.109185 22.2102 0.0848013 22.4101 0.120179 22.6037C0.155556 22.7974 0.24902 22.9756 0.388157 23.1147C0.527294 23.2539 0.705518 23.3473 0.89916 23.3827C1.0928 23.4181 1.29269 23.3937 1.47229 23.3128L9.72117 19.7676L9.71273 11.0543L11.6475 11.0532L11.6422 19.7939L19.8936 23.3222C20.0721 23.3989 20.2695 23.4202 20.4604 23.3834C20.6512 23.3466 20.8267 23.2534 20.964 23.1157C21.0999 22.9742 21.1898 22.7948 21.2217 22.6012C21.2537 22.4077 21.2263 22.2091 21.1431 22.0316L11.5504 1.45491C11.4758 1.28683 11.355 1.14346 11.202 1.04151C11.049 0.939565 10.8702 0.88325 10.6863 0.879126Z" fill="white"/>
</svg>
