<svg width="27" height="31" viewBox="0 0 27 31" fill="none" xmlns="http://www.w3.org/2000/svg">
<path d="M12.7331 0.0318813C11.2653 0.209934 10.0045 0.710403 8.9314 1.54773C6.90064 3.12132 5.82271 5.5948 6.06813 8.11159C6.42905 11.8796 8.75335 15.8256 11.3953 17.1537C12.1796 17.5435 13.0988 17.7312 13.8399 17.6398C14.5232 17.558 15.014 17.404 15.6108 17.0864C17.911 15.8593 19.9851 12.6303 20.6684 9.2184C21.1641 6.75455 20.6443 4.5313 19.1525 2.69304C18.2527 1.58142 16.9197 0.710403 15.5001 0.301365C14.6339 0.0511303 13.4934 -0.0595512 12.7331 0.0318813Z" fill="black"/>
<path d="M7.09306 16.6531C4.62439 17.1632 2.47814 18.6935 1.20772 20.8446C0.986354 21.2151 0.870861 21.4509 0.639874 21.9706C0.466635 22.3653 0.201963 23.2844 0.100906 23.8426C-0.0242117 24.55 -0.0338361 26.0995 0.0768449 26.6481C0.514757 28.7318 1.84293 29.675 4.68695 29.9156C5.07674 29.9493 5.39435 29.9926 5.39435 30.0167C5.39435 30.0359 9.02276 30.0552 13.4548 30.0552C17.8869 30.0552 21.5153 30.0359 21.5153 30.0167C21.5153 29.9926 21.8233 29.9493 22.2034 29.9156C23.4354 29.8098 24.1379 29.6365 24.9319 29.2467C25.3121 29.0639 25.4565 28.958 25.7981 28.6163C26.4141 27.9955 26.7413 27.2689 26.8568 26.2776C26.8809 26.0418 26.9242 25.8397 26.9531 25.83C27.0156 25.806 27.0156 24.9205 26.9531 24.8965C26.929 24.8869 26.8857 24.6751 26.8568 24.4249C26.5296 21.3018 24.4892 18.4866 21.65 17.2499C20.7453 16.8553 19.5471 16.5328 18.984 16.5328C18.8445 16.5328 18.8301 16.5521 18.7964 16.7109C18.6472 17.5001 17.1025 19.1748 14.7012 21.1381C14.0178 21.6964 13.4789 22.115 13.4356 22.115C13.3874 22.115 11.8235 20.8542 11.1209 20.2479C10.2643 19.5068 9.14788 18.3904 8.75327 17.8803C8.40198 17.4279 8.11325 16.9274 8.06513 16.6868C8.03625 16.5425 8.02182 16.5328 7.83414 16.5377C7.72346 16.5377 7.39142 16.5906 7.09306 16.6531ZM19.831 22.3797C20.5288 22.5722 20.5721 22.577 20.9715 22.4567C21.4287 22.3219 21.9051 22.2786 22.1697 22.3508C22.5932 22.4663 22.9349 22.8272 23.0504 23.2844C23.1322 23.6261 23.0407 24.3479 22.8338 25.0168C22.7376 25.3151 22.6413 25.6327 22.6173 25.7242C22.5884 25.8156 22.5258 26.0129 22.4777 26.1573C22.4296 26.3016 22.343 26.5808 22.2804 26.7732C22.2034 27.0187 22.1264 27.163 22.0302 27.2448C21.7799 27.4566 21.4094 27.3603 21.2362 27.0379C20.8849 26.369 20.7934 26.2247 20.6828 26.1862C20.4325 26.0947 20.3363 26.1765 20.0475 26.7107C19.7636 27.2448 19.6385 27.3603 19.3546 27.3603C19.2583 27.3603 19.1573 27.3122 19.0659 27.2304C18.9263 27.0957 18.8156 26.7877 18.2285 24.8772C18.0457 24.2901 17.9687 23.6164 18.0457 23.3036C18.243 22.5144 18.9648 22.1391 19.831 22.3797Z" fill="black"/>
</svg>
