<svg width="60" height="50" viewBox="0 0 60 50" fill="none" xmlns="http://www.w3.org/2000/svg">
<rect x="0.5" y="0.5" width="59" height="49" rx="19.5" fill="white" stroke="#006069"/>
<path d="M28.3229 17.8478L20.8757 25.1957C19.9687 26.0906 19.7662 27.1146 20.2685 28.2676C20.7688 29.4225 21.6634 30 22.9523 30H37.7034C38.9924 30 39.887 29.4225 40.3873 28.2676C40.8895 27.1146 40.6871 26.0906 39.7801 25.1957L32.3329 17.8478C32.0464 17.5652 31.7361 17.3533 31.402 17.212C31.0678 17.0707 30.7098 17 30.3279 17C29.946 17 29.5879 17.0707 29.2538 17.212C28.9196 17.3533 28.6093 17.5652 28.3229 17.8478Z" fill="#006069"/>
</svg>
