<svg width="61" height="50" viewBox="0 0 61 50" fill="none" xmlns="http://www.w3.org/2000/svg">
<rect opacity="0.2" width="61" height="50" rx="20" fill="white"/>
<path d="M31 12C39.25 12 46 17.1711 46 23.5556C46 29.94 39.25 35.1111 31 35.1111C29.14 35.1111 27.355 34.8511 25.705 34.3889C21.325 38 16 38 16 38C19.495 34.6344 20.05 32.3667 20.125 31.5C17.575 29.4344 16 26.6322 16 23.5556C16 17.1711 22.75 12 31 12ZM38.5 25V22.1111H35.5V25H38.5ZM32.5 25V22.1111H29.5V25H32.5ZM26.5 25V22.1111H23.5V25H26.5Z" fill="white"/>
</svg>
