<svg width="854" height="165" viewBox="0 0 854 165" fill="none" xmlns="http://www.w3.org/2000/svg">
<path d="M0.475434 0.661386C0.219426 0.810724 0.176758 11.9684 0.176758 82.7333V164.656H17.6493C27.2709 164.656 35.1858 164.57 35.2499 164.485C35.3139 164.378 35.2712 148.613 35.1645 129.433C34.8872 82.7119 34.8872 63.6393 35.1432 63.6393C35.2499 63.6393 36.2525 65.026 37.3619 66.7328C38.45 68.4395 41.7354 73.4743 44.6581 77.9331C47.5596 82.3919 52.2744 89.5815 55.1118 93.9336C57.9492 98.2644 62.728 105.561 65.7148 110.147C68.7016 114.713 71.7737 119.428 72.5417 120.601C73.3097 121.774 74.9524 124.292 76.1898 126.191L78.4725 129.668H82.142C84.1687 129.668 88.9262 129.604 92.7023 129.519L99.5932 129.391L103.369 123.503C105.439 120.26 109.834 113.54 113.119 108.547C116.383 103.555 122.058 94.8723 125.685 89.2401C136.138 73.069 141.856 64.6847 142.645 64.4287C142.837 64.3647 142.901 74.4983 142.901 114.606V164.869H160.502H178.102L178.06 82.6693L177.996 0.490714H161.568H145.141L144.501 1.49341C144.16 2.0481 142.752 4.2455 141.408 6.40023C139.104 10.0697 132.874 19.4566 107.572 57.4525C98.4412 71.1702 91.0169 82.5839 89.6942 84.9093L89.3102 85.6134L88.3502 84.5467C87.8382 83.9493 86.5368 82.1146 85.4487 80.4292C84.3607 78.7651 81.6726 74.6263 79.4539 71.2556C77.2352 67.8848 70.4723 57.6018 64.4348 48.3855C51.3144 28.3742 36.4872 6.08022 34.2258 2.90146L32.6044 0.597384L16.6893 0.554716C7.94233 0.512048 0.646106 0.57605 0.475434 0.661386Z" fill="white"/>
<path d="M259.641 0.746693C259.513 0.960033 258.233 4.09613 256.761 7.74424C255.289 11.371 252.771 17.5792 251.171 21.5047C249.571 25.4301 246.99 31.809 245.411 35.6918C241.123 46.2521 236.878 56.7271 232.291 68.0128C230.029 73.581 226.936 81.2185 225.4 84.9733C223.885 88.7281 221.24 95.2136 219.554 99.3738C217.869 103.534 215.202 110.105 213.623 113.988C212.045 117.849 209.378 124.441 207.693 128.601C200.631 146.01 197.58 153.519 195.66 158.256C194.551 161.008 193.505 163.546 193.335 163.888C193.164 164.229 193.036 164.592 193.036 164.698C193.036 164.784 201.207 164.869 211.17 164.869H229.304L229.517 164.378C229.624 164.122 230.093 162.842 230.563 161.562C231.032 160.261 232.333 156.869 233.485 153.989C234.616 151.109 237.582 143.45 240.099 136.943C243.15 129.007 244.814 124.953 245.155 124.591C245.539 124.228 246.051 124.036 247.139 123.887C249.465 123.567 270.393 123.439 287.332 123.631C295.845 123.737 302.885 123.737 302.992 123.673C303.269 123.439 302.8 121.732 300.666 115.268C298.618 109.081 296.933 104.537 296.378 103.683L296.058 103.193L274.617 103.342C257.166 103.47 253.198 103.449 253.198 103.214C253.198 102.425 257.081 92.2482 265.209 71.8529C274.767 47.8522 276.345 43.692 277.305 40.1719C278.201 36.8438 278.948 34.6251 279.14 34.7318C279.247 34.7958 279.652 35.8838 280.036 37.1852C281.935 43.5 283.748 48.4922 289.764 64.002C294.714 76.8024 300.431 91.6082 317.349 135.535C319.76 141.743 321.936 147.418 322.214 148.122C322.491 148.826 324.048 152.858 325.691 157.082L328.635 164.762L346.918 164.826C359.484 164.848 365.202 164.805 365.202 164.656C365.202 164.528 364.156 161.861 362.876 158.725C359.591 150.682 348.689 124.036 340.561 104.174C336.763 94.8936 330.427 79.4051 326.48 69.7195C322.512 60.0339 316.133 44.4387 312.293 35.0518C308.453 25.6648 303.738 14.1444 301.84 9.45096C299.919 4.75749 298.255 0.789361 298.149 0.640023C297.999 0.448018 293.882 0.384016 278.884 0.384016C260.942 0.384016 259.812 0.40535 259.641 0.746693Z" fill="white"/>
<path d="M387.751 0.533353C387.666 0.597355 387.602 37.6118 387.602 82.7759V164.869L405.266 164.826L422.909 164.762L423.016 98.0937L423.123 31.4463L423.869 31.2756C425.981 30.8276 436.307 30.721 448.51 30.9983C463.209 31.361 464.575 31.489 469.439 33.0464C476.266 35.2224 481.364 39.7666 483.541 45.6121C484.586 48.3855 484.778 49.6229 484.757 53.2923C484.757 57.2391 484.415 59.0098 483.114 62.0179C482.026 64.5567 480.959 66.0074 478.164 68.7595C475.242 71.6609 473.151 73.325 466.431 78.1464C459.881 82.8399 458.388 84.0346 456.169 86.2747C450.004 92.5042 448.446 98.9044 451.305 106.307C453.246 111.321 456.809 116.697 468.543 132.228C476.756 143.087 484.159 152.901 487.487 157.338C489.365 159.813 491.519 162.544 492.288 163.354L493.674 164.869H513.6C524.566 164.869 533.526 164.784 533.526 164.698C533.526 163.994 528.449 157.445 509.205 133.401C492.053 111.961 486.271 104.537 485.674 103.257C485.375 102.617 485.525 102.51 487.445 101.934C492.65 100.398 498.858 97.1337 503.232 93.6349C510.997 87.4054 516.8 78.2318 519.339 68.1195C520.811 62.3166 521.259 57.9645 521.067 51.799C520.939 47.1908 520.448 43.564 519.424 39.4466C515.776 24.7474 507.712 14.6565 494.25 7.93625C486.613 4.09613 477.93 1.77073 467.284 0.704025C464.575 0.426684 458.366 0.384016 425.981 0.384016C405.031 0.384016 387.815 0.448018 387.751 0.533353Z" fill="white"/>
<path d="M530.261 0.533353C530.197 0.640023 534.998 13.1844 540.928 28.4382C546.838 43.692 556.289 68.0768 561.942 82.6266C567.575 97.1764 572.503 109.891 572.887 110.894C573.292 111.897 578.092 124.271 583.554 138.415C589.037 152.559 593.623 164.293 593.73 164.485C593.901 164.848 594.989 164.869 611.885 164.869H629.848L630.403 163.952C631.769 161.797 633.411 157.872 636.355 149.807C637.422 146.885 639.79 140.698 641.582 136.068C643.396 131.439 646.169 124.271 647.769 120.174C649.369 116.057 651.012 111.833 651.438 110.787C651.844 109.721 652.313 108.526 652.484 108.121C652.633 107.715 659.737 89.4108 668.25 67.4794C676.762 45.5268 684.058 26.7102 684.464 25.6648C690.714 9.64297 694.106 0.682691 693.978 0.533353C693.893 0.448018 685.402 0.40535 675.098 0.426684L656.367 0.490686L655.983 1.55739C655.769 2.1334 655.129 3.92546 654.596 5.50418C652.975 10.1977 648.366 23.1687 647.577 25.2595C647.406 25.7075 646.681 27.6702 645.998 29.6116C645.294 31.553 643.588 36.2038 642.222 39.9586C635.801 57.5378 635.481 58.4552 631.363 70.1462C619.544 103.79 612.611 122.628 612.013 122.628C611.928 122.628 611.715 122.222 611.544 121.71C611.373 121.22 610.648 119.172 609.944 117.188C609.24 115.182 608.514 113.177 608.344 112.708C608.152 112.238 607.426 110.169 606.701 108.121C605.976 106.073 604.973 103.235 604.461 101.827C603.949 100.419 602.52 96.387 601.261 92.8669C600.024 89.3468 598.765 85.848 598.487 85.08C598.21 84.312 596.951 80.8132 595.714 77.2931C594.455 73.773 593.026 69.7408 592.514 68.3328C592.002 66.9248 590.573 62.8926 589.314 59.3725C588.077 55.8524 586.818 52.3536 586.54 51.5856C586.263 50.8176 584.812 46.7855 583.34 42.6253C581.868 38.4652 580.418 34.4331 580.14 33.6651C579.863 32.897 578.86 30.0596 577.9 27.3715C576.94 24.6621 575.937 21.846 575.66 21.078C575.383 20.31 573.889 16.1285 572.353 11.7977C568.769 1.74939 568.727 1.66406 568.471 0.960033L568.257 0.384016H549.291C538.88 0.384016 530.304 0.448018 530.261 0.533353Z" fill="white"/>
<path d="M748.382 0.939118C748.147 1.23779 747.656 2.26183 747.272 3.22186C746.91 4.18189 744.371 10.4327 741.64 17.1316C738.909 23.8092 734.067 35.6709 730.888 43.4791C727.688 51.2874 724.914 58.0929 724.68 58.6262C724.466 59.1596 721.778 65.6878 718.749 73.1334C705.202 106.35 700.743 117.252 700.359 118.148C700.124 118.681 697.457 125.21 694.407 132.655C691.356 140.101 688.006 148.165 686.961 150.576C683.761 157.936 681.585 163.611 681.585 164.571C681.585 164.827 684.465 164.87 699.74 164.827C715.634 164.763 717.938 164.72 718.087 164.443C718.194 164.272 721.074 156.869 724.488 148.016C734.045 123.183 741.512 103.833 741.854 103.001C742.024 102.596 744.712 95.6194 747.827 87.5338C750.942 79.4269 753.737 72.2373 754.014 71.5333C758.622 59.8636 765.556 41.495 766.153 39.319C767.369 34.9242 767.625 34.0708 767.774 33.9855C767.86 33.9215 768.052 34.4762 768.18 35.2229C769.417 41.6017 773.193 51.9914 782.281 74.1147C789.876 92.5046 793.375 101.657 793.375 103.022C793.375 103.406 792.778 103.428 771.742 103.428C752.499 103.428 750.088 103.47 749.982 103.748C749.875 104.068 747.571 111.065 744.755 119.62C744.051 121.775 743.518 123.631 743.582 123.738C743.646 123.823 756.595 123.908 772.361 123.908H801.034L801.546 124.591C802.421 125.764 803.146 127.386 804.341 130.906C804.981 132.741 806.154 135.941 806.986 137.989C811.381 148.848 814.432 156.763 816.096 161.563L817.227 164.763L835.488 164.827C845.537 164.848 853.75 164.784 853.75 164.699C853.75 164.592 852.641 161.776 851.276 158.448C849.932 155.12 847.201 148.4 845.217 143.536C843.233 138.671 839.883 130.415 837.75 125.188C829.835 105.732 826.059 96.4514 822.389 87.4271C815.605 70.744 811.381 60.3756 807.498 50.8393C805.407 45.6765 802.015 37.3776 799.989 32.3854C797.962 27.3933 794.74 19.4784 792.82 14.7849C790.922 10.0914 788.831 4.94991 788.191 3.37119L787.039 0.491104L767.924 0.427102L748.83 0.384434L748.382 0.939118Z" fill="white"/>
</svg>
