<svg width="239" height="228" viewBox="0 0 239 228" fill="none" xmlns="http://www.w3.org/2000/svg">
<path d="M93.3358 0.7668C93.0114 1.17969 92.3331 2.59534 91.8022 3.9225C91.3008 5.24968 87.7912 13.891 84.0161 23.1517C80.2411 32.3829 73.5463 48.7808 69.1519 59.5751C64.728 70.3694 60.8939 79.7776 60.5695 80.5149C60.2746 81.2522 56.5585 90.2769 52.3705 100.57C33.6427 146.49 27.4788 161.561 26.9479 162.799C26.6235 163.537 22.9369 172.561 18.7195 182.854C14.502 193.147 9.87167 204.295 8.42653 207.628C4.00263 217.803 0.994385 225.648 0.994385 226.975C0.994385 227.329 4.97589 227.388 26.0926 227.329C48.0646 227.241 51.2498 227.182 51.4563 226.798C51.6037 226.562 55.5852 216.328 60.3041 204.089C73.5168 169.76 83.8392 143.01 84.3111 141.86C84.547 141.299 88.2631 131.655 92.569 120.477C96.8749 109.27 100.738 99.3312 101.122 98.3579C107.492 82.2254 117.077 56.8323 117.903 53.824C119.584 47.7486 119.938 46.5688 120.145 46.4509C120.263 46.3624 120.528 47.1292 120.705 48.1615C122.416 56.9798 127.636 71.3427 140.2 101.927C150.699 127.349 155.536 140.002 155.536 141.889C155.536 142.42 154.71 142.449 125.63 142.449C99.0279 142.449 95.6952 142.508 95.5478 142.892C95.4003 143.334 92.2151 153.008 88.3221 164.834C87.3488 167.813 86.6115 170.379 86.7 170.526C86.7885 170.644 104.69 170.762 126.486 170.762H166.124L166.831 171.706C168.041 173.328 169.043 175.57 170.695 180.436C171.58 182.972 173.202 187.396 174.352 190.227C180.428 205.239 184.645 216.181 186.945 222.817L188.509 227.241L213.754 227.329C227.645 227.359 239 227.27 239 227.152C239 227.005 237.466 223.112 235.579 218.511C233.721 213.91 229.946 204.62 227.203 197.896C224.46 191.171 219.83 179.758 216.88 172.532C205.939 145.635 200.718 132.805 195.646 120.33C186.267 97.2667 180.428 82.9333 175.06 69.7501C172.17 62.6128 167.48 51.1402 164.678 44.2389C161.877 37.3377 157.423 26.3959 154.769 19.9075C152.144 13.4191 149.254 6.31142 148.369 4.12895L146.776 0.147446L120.351 0.0589752L93.9552 -1.52588e-05L93.3358 0.7668Z" fill="white"/>
</svg>
