<svg width="239" height="228" viewBox="0 0 239 228" fill="none" xmlns="http://www.w3.org/2000/svg">
<path d="M92.6893 0.501373C92.5123 0.796295 90.7428 5.13171 88.7078 10.175C86.6728 15.1887 83.1926 23.7711 80.9807 29.1977C78.7688 34.6243 75.2001 43.4426 73.0177 48.8103C67.0897 63.4091 61.2206 77.89 54.8797 93.4916C51.7535 101.189 47.4771 111.748 45.3536 116.938C43.2596 122.129 39.6025 131.095 37.2726 136.846C34.9427 142.597 31.2561 151.681 29.0737 157.048C26.8912 162.386 23.2046 171.5 20.8747 177.251C11.1127 201.317 6.89521 211.698 4.24088 218.245C2.70726 222.05 1.26212 225.56 1.02618 226.032C0.790237 226.503 0.613281 227.005 0.613281 227.152C0.613281 227.27 11.909 227.388 25.682 227.388H50.7508L51.0457 226.71C51.1931 226.356 51.842 224.586 52.4908 222.817C53.1397 221.018 54.9387 216.328 56.5313 212.347C58.0944 208.365 62.1939 197.778 65.674 188.782C69.8915 177.811 72.1919 172.207 72.6638 171.706C73.1946 171.205 73.9025 170.939 75.4066 170.733C78.6213 170.29 107.554 170.113 130.971 170.379C142.738 170.526 152.471 170.526 152.618 170.438C153.002 170.113 152.353 167.754 149.404 158.818C146.572 150.265 144.242 143.983 143.476 142.803L143.033 142.125L113.393 142.331C89.2681 142.508 83.7825 142.479 83.7825 142.154C83.7825 141.063 89.1502 126.995 100.387 98.8003C113.6 65.6211 115.782 59.87 117.109 55.0038C118.348 50.4029 119.38 47.3357 119.646 47.4831C119.793 47.5716 120.353 49.0757 120.884 50.8748C123.509 59.6046 126.016 66.5059 134.333 87.947C141.175 105.643 149.079 126.11 172.467 186.836C175.8 195.418 178.808 203.263 179.191 204.236C179.575 205.21 181.728 210.784 183.998 216.623L188.068 227.241L213.344 227.329C230.715 227.359 238.619 227.3 238.619 227.093C238.619 226.916 237.174 223.23 235.404 218.894C230.862 207.776 215.792 170.939 204.555 143.482C199.305 130.652 190.546 109.241 185.09 95.851C179.604 82.4614 170.786 60.9023 165.477 47.9255C160.168 34.9488 153.651 19.0227 151.026 12.5344C148.371 6.04599 146.071 0.560349 145.923 0.353912C145.717 0.0884705 140.025 0 119.292 0C94.4883 0 92.9252 0.02948 92.6893 0.501373Z" fill="white"/>
</svg>
