<svg width="203" height="228" viewBox="0 0 203 228" fill="none" xmlns="http://www.w3.org/2000/svg">
<path d="M0.792386 0.206436C0.674415 0.294922 0.585938 51.4646 0.585938 113.901V227.388L25.0058 227.329L49.3962 227.241L49.5437 135.076L49.6912 42.9413L50.7234 42.7053C53.6432 42.086 67.9176 41.9385 84.7874 42.3219C105.108 42.8233 106.995 43.0002 113.72 45.1532C123.157 48.1615 130.206 54.4434 133.214 62.5244C134.659 66.3584 134.925 68.069 134.895 73.1417C134.895 78.5979 134.423 81.0457 132.624 85.2042C131.12 88.7138 129.646 90.7193 125.782 94.5239C121.742 98.5349 118.851 100.835 109.561 107.501C100.507 113.989 98.4425 115.641 95.3753 118.737C86.8519 127.349 84.6989 136.197 88.6509 146.431C91.3348 153.362 96.26 160.794 112.481 182.264C123.836 197.276 134.07 210.843 138.67 216.977C141.266 220.398 144.245 224.173 145.306 225.294L147.223 227.388H174.769C189.929 227.388 202.316 227.27 202.316 227.152C202.316 226.179 195.296 217.125 168.694 183.887C144.982 154.246 136.989 143.983 136.164 142.213C135.751 141.329 135.957 141.181 138.611 140.385C145.808 138.261 154.39 133.749 160.436 128.912C171.171 120.3 179.193 107.619 182.703 93.6391C184.738 85.6171 185.357 79.6006 185.092 71.0772C184.915 64.7068 184.237 59.6931 182.821 54.001C177.778 33.6806 166.629 19.7306 148.02 10.4404C137.461 5.13171 125.458 1.91702 110.741 0.442383C106.995 0.0589752 98.413 0 53.6432 0C24.6814 0 0.880864 0.0884705 0.792386 0.206436Z" fill="white"/>
</svg>
