<svg width="228" height="228" viewBox="0 0 228 228" fill="none" xmlns="http://www.w3.org/2000/svg">
<path d="M0.803121 0.206436C0.714643 0.353912 7.35049 17.6956 15.5494 38.7828C23.7189 59.87 36.7841 93.5801 44.5997 113.694C52.3857 133.808 59.1985 151.386 59.7294 152.772C60.2898 154.158 66.9256 171.264 74.4757 190.817C82.0553 210.371 88.3962 226.592 88.5437 226.857C88.7796 227.359 90.2838 227.388 113.642 227.388H138.475L139.242 226.12C141.129 223.141 143.4 217.715 147.47 206.566C148.945 202.526 152.218 193.973 154.696 187.573C157.203 181.173 161.037 171.264 163.249 165.601C165.46 159.909 167.731 154.07 168.321 152.624C168.882 151.15 169.53 149.498 169.766 148.938C169.973 148.377 179.794 123.073 191.561 92.7543C203.329 62.4064 213.416 36.3939 213.976 34.9488C222.617 12.7998 227.307 0.412888 227.13 0.206436C227.012 0.0884705 215.274 0.02948 201.029 0.0589752L175.134 0.147461L174.603 1.62209C174.308 2.4184 173.423 4.89577 172.686 7.07823C170.445 13.5666 164.074 31.4981 162.983 34.3884C162.747 35.0078 161.744 37.7211 160.801 40.4049C159.827 43.0887 157.468 49.5181 155.58 54.7088C146.703 79.0108 146.261 80.2789 140.569 96.4409C124.23 142.951 114.645 168.993 113.819 168.993C113.701 168.993 113.406 168.432 113.17 167.725C112.934 167.046 111.931 164.215 110.958 161.472C109.985 158.7 108.982 155.928 108.746 155.279C108.481 154.63 107.478 151.769 106.475 148.938C105.472 146.106 104.086 142.184 103.378 140.237C102.671 138.291 100.695 132.717 98.9546 127.851C97.244 122.984 95.504 118.147 95.1206 117.086C94.7372 116.024 92.9971 111.187 91.2865 106.321C89.5464 101.455 87.5704 95.8805 86.8626 93.934C86.1548 91.9875 84.1788 86.4134 82.4387 81.5471C80.7281 76.6808 78.9881 71.844 78.6047 70.7823C78.2213 69.7206 76.2158 64.1465 74.1808 58.3954C72.1458 52.6443 70.1403 47.0702 69.7569 46.0085C69.3735 44.9468 67.9873 41.0242 66.6602 37.3082C65.333 33.5626 63.9468 29.6696 63.5634 28.6078C63.18 27.5461 61.1156 21.7656 58.9921 15.7785C54.0373 1.88753 53.9783 1.76955 53.6244 0.796295L53.3295 0H27.1105C12.7181 0 0.862106 0.0884705 0.803121 0.206436Z" fill="white"/>
</svg>
