<svg width="246" height="228" viewBox="0 0 246 228" fill="none" xmlns="http://www.w3.org/2000/svg">
<path d="M0.412897 0.383392C0.0589853 0.589844 0 16.0145 0 113.842V227.093H24.1545C37.4556 227.093 48.3974 226.975 48.4859 226.857C48.5744 226.71 48.5154 204.915 48.3679 178.401C47.9845 113.812 47.9845 87.4456 48.3384 87.4456C48.4859 87.4456 49.872 89.3627 51.4057 91.7221C52.9098 94.0815 57.4516 101.042 61.4921 107.206C65.5031 113.37 72.021 123.309 75.9435 129.325C79.866 135.312 86.4724 145.399 90.6014 151.74C94.7303 158.051 98.9773 164.569 100.039 166.191C101.101 167.813 103.372 171.293 105.082 173.918L108.238 178.725H113.311C116.112 178.725 122.689 178.637 127.91 178.519L137.436 178.342L142.656 170.202C145.517 165.719 151.592 156.429 156.134 149.528C160.646 142.626 168.491 130.623 173.505 122.837C187.957 100.481 195.861 88.8908 196.952 88.5369C197.217 88.4484 197.306 102.457 197.306 157.904V227.388H221.637H245.969L245.91 113.753L245.821 0.147461H223.112H200.402L199.518 1.53362C199.046 2.30042 197.099 5.33817 195.241 8.31691C192.056 13.3896 183.444 26.3664 148.466 78.8928C135.843 97.8566 125.58 113.635 123.751 116.85L123.22 117.823L121.893 116.348C121.185 115.523 119.386 112.986 117.882 110.656C116.378 108.356 112.662 102.634 109.595 97.9745C106.527 93.3147 97.1782 79.0992 88.8318 66.3584C70.6938 38.6943 50.1965 7.87453 47.0702 3.48012L44.8288 0.294922L22.8273 0.235931C10.7353 0.176956 0.648838 0.265427 0.412897 0.383392Z" fill="white"/>
</svg>
