<svg width="150" height="41" viewBox="0 0 150 41" fill="none" xmlns="http://www.w3.org/2000/svg">
<path d="M7.34699 0.0164566C7.32676 0.0291023 7.16741 0.0569229 6.99289 0.079689C6.15316 0.190979 5.5613 0.335148 4.91633 0.590607C4.19295 0.87389 3.59097 1.27352 3.00923 1.85273C1.69905 3.15786 0.828968 5.08013 0.355988 7.72073C0.333224 7.84467 0.302872 8.0116 0.290226 8.08748C0.27505 8.16336 0.252286 8.3227 0.239639 8.44158C0.224464 8.56046 0.196641 8.7881 0.176407 8.94744C-0.0765241 10.9582 -0.0562896 13.6393 0.229522 16.2571C0.692385 20.5165 1.74964 24.9074 3.32034 29.0934C4.71398 32.8089 6.52244 36.178 8.19684 38.1761C8.5383 38.5834 9.18327 39.2283 9.48679 39.4686C10.0837 39.9391 10.6427 40.2375 11.1561 40.3564C11.6595 40.4727 11.839 40.4854 12.2184 40.4247C12.6105 40.3615 12.871 40.2198 13.2327 39.8733C13.5084 39.6077 13.6981 39.375 13.989 38.9324C14.3684 38.3582 14.6795 37.779 15.7064 35.7328C17.2138 32.7356 17.8816 31.5797 18.9287 30.1683C21.2911 26.9839 24.1972 25.2084 27.6826 24.8189C28.2062 24.7582 28.3908 24.7455 28.3908 24.7708C28.3908 24.7834 28.2973 24.8163 28.1809 24.8416C26.9264 25.13 25.4948 25.7496 24.3566 26.4933C23.5927 26.9941 22.882 27.5707 22.1207 28.3093C21.7008 28.7165 20.4488 30.095 20.4488 30.1481C20.4488 30.1582 20.5348 30.2063 20.641 30.2543C21.1697 30.4997 21.4302 30.7653 21.7767 31.4203C21.8576 31.5721 21.979 31.7947 22.0473 31.9085C22.7024 33.029 23.3929 34.673 23.8634 36.2387C23.9064 36.3854 23.9519 36.5321 23.9645 36.5675C23.9949 36.656 24.0986 36.9975 24.1669 37.2251C24.6879 38.9982 24.9788 39.6634 25.4315 40.1111C25.7882 40.4626 26.1701 40.5942 26.8353 40.5967C27.1717 40.5967 27.2729 40.584 27.6573 40.4955C30.2929 39.8935 33.2269 35.8972 35.5159 29.8016C35.8877 28.8126 36.4669 27.0801 36.687 26.2985C36.7451 26.0987 36.8792 25.6308 36.9146 25.5018C37.0335 25.092 37.3421 23.9108 37.4281 23.5289C37.4508 23.4303 37.5039 23.2026 37.5469 23.023C37.5899 22.8409 37.6405 22.6259 37.6608 22.5425C37.7164 22.3047 37.8934 21.4523 37.939 21.2146C37.9617 21.0957 37.9896 20.9541 38.0022 20.8984C38.0149 20.8428 38.0452 20.6936 38.0654 20.5696C38.0882 20.4431 38.1236 20.256 38.1413 20.1523C38.1616 20.0486 38.1944 19.8538 38.2172 19.7223C38.24 19.5908 38.2678 19.4188 38.283 19.3429C38.2956 19.267 38.3234 19.09 38.3437 18.9509C38.3664 18.8117 38.3942 18.6296 38.4094 18.5462C38.4221 18.4627 38.4448 18.3084 38.4575 18.2047C38.4727 18.101 38.5005 17.8835 38.5232 17.7241C38.632 16.9072 38.7205 16.0725 38.7838 15.2707C38.7989 15.0835 38.8242 14.7927 38.8369 14.6257C38.8495 14.4588 38.8723 13.9681 38.8875 13.5381C38.9001 13.1056 38.9178 12.6048 38.9254 12.4252C38.9456 11.8688 38.89 10.336 38.8116 9.37743C38.7863 9.06632 38.7736 8.9525 38.6978 8.3657C38.3133 5.4747 37.4508 3.31973 36.1432 2.00449C35.306 1.1597 34.3701 0.706955 33.0321 0.497025C32.936 0.48185 32.7539 0.454025 32.6274 0.433792C31.7599 0.294678 31.0238 0.239033 30.0728 0.239033C28.2846 0.239033 26.7518 0.486908 25.0522 1.056C19.389 2.94539 14.209 8.13301 9.87124 16.2571C8.65718 18.5335 7.42793 21.1842 6.46933 23.6048C6.3378 23.9387 6.21892 24.2219 6.20628 24.2346C6.16581 24.2776 6.18098 24.1536 6.24675 23.8729C6.32515 23.5542 6.3985 23.2406 6.45415 22.9978C6.50221 22.7853 6.7602 21.7559 6.85125 21.4169C6.97013 20.9642 7.304 19.783 7.34447 19.6717C7.35711 19.6363 7.40517 19.4896 7.44817 19.3429C7.53163 19.0647 7.73904 18.4146 7.77698 18.3059C7.78962 18.2705 7.8655 18.0555 7.94138 17.8253C9.71949 12.6074 12.2817 8.00907 15.5141 4.24293C15.9315 3.7573 16.4449 3.19074 16.8117 2.81134C16.9761 2.64188 17.1101 2.49265 17.1101 2.47747C17.1101 2.44206 16.5714 2.12337 16.0807 1.87297C14.6618 1.142 13.1821 0.631077 11.5583 0.312386C10.8223 0.165684 10.6958 0.145451 10.2051 0.0923347C10.0736 0.079689 9.9016 0.0543938 9.82572 0.0392189C9.65625 0.00380707 7.40264 -0.0164261 7.34699 0.0164566Z" fill="#006069"/>
<path d="M48.838 5.16082C48.8077 5.17852 48.8026 6.50135 48.8026 14.8911V24.6036H50.8741C52.0148 24.6036 52.9532 24.5935 52.9608 24.5834C52.9684 24.5707 52.9633 22.7016 52.9507 20.4277C52.9178 14.8885 52.9178 12.6273 52.9481 12.6273C52.9608 12.6273 53.0797 12.7917 53.2112 12.9941C53.3402 13.1964 53.7297 13.7933 54.0762 14.322C54.4202 14.8506 54.9792 15.703 55.3156 16.219C55.652 16.7324 56.2185 17.5974 56.5726 18.1412C56.9268 18.6825 57.291 19.2415 57.382 19.3806C57.4731 19.5197 57.6678 19.8182 57.8145 20.0433L58.0852 20.4555H58.5202C58.7605 20.4555 59.3245 20.448 59.7722 20.4378L60.5892 20.4227L61.0369 19.7246C61.2822 19.3401 61.8033 18.5434 62.1928 17.9515C62.5798 17.3597 63.2526 16.3302 63.6825 15.6625C64.9219 13.7453 65.5998 12.7513 65.6933 12.7209C65.7161 12.7133 65.7237 13.9148 65.7237 18.6699V24.6289H67.8104H69.897L69.892 14.8835L69.8844 5.14058H67.9368H65.9893L65.9134 5.25946C65.8729 5.32522 65.706 5.58574 65.5466 5.8412C65.2735 6.27625 64.5349 7.38914 61.5352 11.8938C60.4526 13.5202 59.5724 14.8734 59.4156 15.1491L59.3701 15.2325L59.2562 15.1061C59.1955 15.0352 59.0413 14.8177 58.9123 14.6179C58.7833 14.4206 58.4646 13.9299 58.2015 13.5303C57.9385 13.1307 57.1367 11.9115 56.4209 10.8189C54.8654 8.44639 53.1075 5.80326 52.8394 5.4264L52.6472 5.15323L50.7603 5.14817C49.7233 5.14311 48.8583 5.1507 48.838 5.16082Z" fill="#006069"/>
<path d="M79.5639 5.17093C79.5487 5.19623 79.3969 5.56804 79.2224 6.00055C79.0479 6.43053 78.7494 7.16656 78.5597 7.63195C78.37 8.09735 78.064 8.85361 77.8768 9.31394C77.3684 10.566 76.8651 11.8078 76.3213 13.1458C76.0532 13.806 75.6864 14.7115 75.5043 15.1566C75.3247 15.6018 75.0111 16.3707 74.8113 16.8639C74.6115 17.3571 74.2953 18.1362 74.1081 18.5965C73.921 19.0543 73.6048 19.8359 73.405 20.3291C72.5678 22.393 72.2061 23.2833 71.9785 23.8448C71.8469 24.1711 71.723 24.4721 71.7028 24.5126C71.6825 24.553 71.6674 24.596 71.6674 24.6087C71.6674 24.6188 72.6361 24.6289 73.8173 24.6289H75.9672L75.9925 24.5707C76.0051 24.5404 76.0608 24.3886 76.1164 24.2369C76.1721 24.0826 76.3263 23.6804 76.4629 23.339C76.597 22.9975 76.9486 22.0895 77.247 21.318C77.6087 20.3771 77.806 19.8966 77.8465 19.8536C77.892 19.8106 77.9527 19.7878 78.0817 19.7701C78.3574 19.7322 80.8386 19.717 82.8469 19.7398C83.8561 19.7524 84.6908 19.7524 84.7034 19.7448C84.7363 19.717 84.6806 19.5146 84.4277 18.7483C84.1849 18.0148 83.9851 17.476 83.9193 17.3748L83.8814 17.3167L81.3394 17.3344C79.2705 17.3496 78.8 17.347 78.8 17.3192C78.8 17.2256 79.2603 16.0191 80.224 13.6011C81.3571 10.7556 81.5443 10.2624 81.6581 9.8451C81.7644 9.45053 81.8529 9.18748 81.8756 9.20012C81.8883 9.20771 81.9363 9.33671 81.9819 9.49099C82.207 10.2397 82.422 10.8315 83.1352 12.6703C83.722 14.1879 84.3999 15.9433 86.4056 21.1511C86.6914 21.8871 86.9494 22.5599 86.9823 22.6434C87.0152 22.7269 87.1998 23.2049 87.3946 23.7057L87.7436 24.6163L89.9113 24.6238C91.401 24.6264 92.0789 24.6213 92.0789 24.6036C92.0789 24.5884 91.9549 24.2723 91.8032 23.9005C91.4137 22.9469 90.1212 19.7878 89.1575 17.433C88.7073 16.3328 87.9561 14.4965 87.4882 13.3482C87.0177 12.1999 86.2615 10.351 85.8062 9.23806C85.3509 8.12517 84.7919 6.75934 84.5668 6.20289C84.3392 5.64644 84.1419 5.17599 84.1293 5.15829C84.1116 5.13552 83.6234 5.12794 81.8453 5.12794C79.7181 5.12794 79.5841 5.13047 79.5639 5.17093Z" fill="#006069"/>
<path d="M94.7524 5.14564C94.7423 5.15323 94.7347 9.54158 94.7347 14.8961V24.6289L96.8289 24.6238L98.9207 24.6163L98.9333 16.7122L98.946 8.81061L99.0345 8.79038C99.2849 8.73726 100.509 8.72461 101.956 8.75749C103.699 8.80049 103.86 8.81567 104.437 9.00031C105.246 9.2583 105.851 9.79704 106.109 10.4901C106.233 10.8189 106.256 10.9656 106.253 11.4006C106.253 11.8685 106.213 12.0785 106.058 12.4351C105.929 12.7361 105.803 12.9081 105.472 13.2344C105.125 13.5784 104.877 13.7756 104.08 14.3473C103.304 14.9037 103.127 15.0454 102.864 15.3109C102.133 16.0495 101.948 16.8083 102.287 17.686C102.517 18.2803 102.94 18.9177 104.331 20.7591C105.305 22.0465 106.182 23.21 106.577 23.7361C106.799 24.0295 107.055 24.3532 107.146 24.4493L107.31 24.6289H109.673C110.973 24.6289 112.035 24.6188 112.035 24.6087C112.035 24.5252 111.433 23.7487 109.152 20.8982C107.118 18.3562 106.433 17.476 106.362 17.3243C106.326 17.2484 106.344 17.2357 106.572 17.1674C107.189 16.9853 107.925 16.5984 108.444 16.1835C109.364 15.445 110.052 14.3574 110.353 13.1585C110.528 12.4705 110.581 11.9545 110.558 11.2236C110.543 10.6772 110.485 10.2473 110.363 9.7591C109.931 8.01641 108.975 6.82004 107.379 6.02331C106.473 5.56804 105.444 5.29234 104.182 5.16588C103.86 5.133 103.124 5.12794 99.2849 5.12794C96.8011 5.12794 94.76 5.13552 94.7524 5.14564Z" fill="#006069"/>
<path d="M111.648 5.14564C111.641 5.15829 112.21 6.64552 112.913 8.45398C113.614 10.2624 114.734 13.1534 115.404 14.8784C116.072 16.6034 116.656 18.1109 116.702 18.2298C116.75 18.3486 117.319 19.8156 117.966 21.4926C118.617 23.1695 119.16 24.5606 119.173 24.5834C119.193 24.6264 119.322 24.6289 121.325 24.6289H123.455L123.521 24.5201C123.683 24.2647 123.877 23.7993 124.227 22.8432C124.353 22.4967 124.634 21.7632 124.846 21.2143C125.061 20.6655 125.39 19.8156 125.58 19.33C125.769 18.8418 125.964 18.341 126.015 18.2171C126.063 18.0906 126.118 17.949 126.139 17.9009C126.156 17.8529 126.999 15.6827 128.008 13.0826C129.017 10.48 129.882 8.2491 129.93 8.12517C130.671 6.22566 131.073 5.16335 131.058 5.14564C131.048 5.13552 130.041 5.13047 128.82 5.133L126.599 5.14058L126.553 5.26705C126.528 5.33534 126.452 5.5478 126.389 5.73497C126.197 6.29142 125.651 7.82924 125.557 8.07711C125.537 8.13023 125.451 8.36292 125.37 8.59309C125.286 8.82326 125.084 9.37465 124.922 9.8198C124.161 11.904 124.123 12.0127 123.635 13.3988C122.233 17.3875 121.411 19.6209 121.341 19.6209C121.33 19.6209 121.305 19.5728 121.285 19.5121C121.265 19.4539 121.179 19.2111 121.095 18.9759C121.012 18.7381 120.926 18.5004 120.906 18.4447C120.883 18.3891 120.797 18.1438 120.711 17.9009C120.625 17.6581 120.506 17.3217 120.445 17.1548C120.384 16.9879 120.215 16.5098 120.066 16.0925C119.919 15.6752 119.77 15.2603 119.737 15.1693C119.704 15.0782 119.555 14.6634 119.408 14.2461C119.259 13.8288 119.089 13.3507 119.029 13.1838C118.968 13.0169 118.799 12.5388 118.649 12.1215C118.503 11.7041 118.353 11.2893 118.321 11.1983C118.288 11.1072 118.116 10.6292 117.941 10.136C117.767 9.64275 117.595 9.16471 117.562 9.07366C117.529 8.9826 117.41 8.6462 117.296 8.32751C117.182 8.00629 117.064 7.67242 117.031 7.58137C116.998 7.49031 116.821 6.99457 116.639 6.48112C116.214 5.28981 116.209 5.2797 116.178 5.19623L116.153 5.12794H113.904C112.67 5.12794 111.653 5.13552 111.648 5.14564Z" fill="#006069"/>
<path d="M137.508 5.19412C137.48 5.22953 137.422 5.35093 137.376 5.46475C137.333 5.57857 137.032 6.31966 136.708 7.11386C136.385 7.90554 135.81 9.31183 135.434 10.2376C135.054 11.1633 134.725 11.9701 134.698 12.0334C134.672 12.0966 134.354 12.8706 133.994 13.7533C132.388 17.6914 131.86 18.9839 131.814 19.0901C131.786 19.1534 131.47 19.9273 131.108 20.8101C130.747 21.6928 130.35 22.6489 130.226 22.9347C129.846 23.8073 129.588 24.4801 129.588 24.5939C129.588 24.6243 129.93 24.6293 131.741 24.6243C133.625 24.6167 133.898 24.6116 133.916 24.5787C133.929 24.5585 134.27 23.6808 134.675 22.6312C135.808 19.6871 136.693 17.393 136.734 17.2943C136.754 17.2463 137.073 16.4192 137.442 15.4606C137.811 14.4994 138.142 13.6471 138.175 13.5636C138.722 12.1801 139.544 10.0023 139.615 9.74434C139.759 9.22331 139.789 9.12213 139.807 9.11202C139.817 9.10443 139.84 9.17019 139.855 9.25872C140.002 10.015 140.449 11.2468 141.527 13.8696C142.427 16.0499 142.842 17.135 142.842 17.2969C142.842 17.3424 142.771 17.3449 140.277 17.3449C137.996 17.3449 137.71 17.35 137.697 17.3829C137.685 17.4208 137.412 18.2504 137.078 19.2647C136.994 19.5201 136.931 19.7402 136.939 19.7528C136.946 19.7629 138.481 19.7731 140.351 19.7731H143.75L143.811 19.854C143.914 19.9931 144 20.1853 144.142 20.6027C144.218 20.8202 144.357 21.1996 144.456 21.4424C144.977 22.7298 145.338 23.6682 145.536 24.2373L145.67 24.6167L147.835 24.6243C149.026 24.6268 150 24.6192 150 24.6091C150 24.5964 149.868 24.2626 149.706 23.868C149.547 23.4734 149.223 22.6767 148.988 22.1C148.753 21.5233 148.356 20.5445 148.103 19.9248C147.165 17.6181 146.717 16.5178 146.282 15.4479C145.477 13.47 144.977 12.2408 144.516 11.1102C144.268 10.4981 143.866 9.51418 143.626 8.92232C143.386 8.33046 143.004 7.39209 142.776 6.83564C142.551 6.27919 142.303 5.66963 142.227 5.48246L142.091 5.141L139.824 5.13342L137.561 5.12836L137.508 5.19412Z" fill="#006069"/>
<path d="M49.1363 31.4759L49.1439 35.3154H51.0535C52.9328 35.3129 52.9682 35.3129 53.2919 35.2547C54.2025 35.0929 54.8424 34.7792 55.4064 34.2177C55.8162 33.808 56.0716 33.3906 56.2487 32.8418C56.3954 32.3941 56.4283 32.1513 56.4283 31.5088C56.4283 30.8689 56.3954 30.6236 56.2512 30.1784C55.8997 29.1034 55.0422 28.2435 53.9597 27.8818C53.2919 27.6567 53.0668 27.639 50.9068 27.639H49.1312L49.1363 31.4759ZM52.8923 28.5495C53.6486 28.6507 54.1949 28.9036 54.6552 29.3665C55.0675 29.7813 55.3179 30.2796 55.4166 30.8765C55.4671 31.1901 55.4671 31.7921 55.414 32.1108C55.2218 33.3223 54.4048 34.1368 53.1377 34.3821C52.948 34.4175 52.6976 34.4276 51.5113 34.4352C50.3605 34.4453 50.1075 34.4403 50.0898 34.4125C50.0645 34.3745 50.0595 28.5672 50.0848 28.5419C50.1126 28.5141 52.6748 28.5217 52.8923 28.5495Z" fill="#006069"/>
<path d="M90.5791 27.6569C90.569 27.6645 90.5614 29.3895 90.5614 31.4863V35.303L90.6196 35.3157C90.6499 35.3233 92.0815 35.3258 93.7989 35.3233L96.9226 35.3157V34.8857V34.4557L94.2289 34.4431L91.5352 34.4304L91.5276 33.0469L91.5225 31.6608L93.0578 31.6558L94.5956 31.6482V31.2182V30.7882L93.0578 30.7806L91.5225 30.7756L91.5276 29.6551L91.5352 28.5371L94.0721 28.5295L96.6064 28.5245V28.0819V27.6392H93.6016C91.9475 27.6392 90.5867 27.6468 90.5791 27.6569Z" fill="#006069"/>
<path d="M115.88 29.2706C115.06 29.3894 114.382 29.7182 113.841 30.2595C113.363 30.7376 113.108 31.251 113.009 31.9263C112.905 32.6421 113.044 33.3503 113.398 33.927C113.902 34.7415 114.815 35.308 115.854 35.4522C116.52 35.5432 116.682 35.5407 117.339 35.4395C118.088 35.3232 118.786 34.9742 119.304 34.4556C119.449 34.3115 119.684 34.0206 119.757 33.8941C119.77 33.8764 119.648 33.7778 119.423 33.6235C119.229 33.4894 119.059 33.3807 119.044 33.3807C119.031 33.3807 118.963 33.4515 118.892 33.54C118.725 33.75 118.429 34.0307 118.232 34.1648C117.569 34.615 116.598 34.7566 115.73 34.529C114.881 34.3064 114.223 33.6994 114.003 32.933C113.927 32.67 113.922 32.068 113.993 31.8125C114.167 31.1827 114.62 30.6592 115.25 30.3607C116.413 29.8093 118.027 30.0951 118.756 30.9829C118.809 31.0487 118.867 31.1018 118.887 31.1018C118.94 31.1043 119.598 30.6389 119.59 30.6035C119.583 30.5529 119.325 30.2696 119.137 30.1052C118.637 29.6651 117.997 29.3869 117.225 29.2706C116.914 29.225 116.193 29.225 115.88 29.2706Z" fill="#006069"/>
<path d="M138.674 29.2729C138.074 29.3589 137.553 29.5562 137.093 29.8723C136.226 30.4642 135.76 31.3318 135.76 32.3561C135.76 33.4336 136.289 34.3568 137.245 34.9436C137.789 35.2775 138.226 35.409 139.119 35.5051C139.726 35.5709 140.697 35.3888 141.279 35.1004C141.744 34.8703 142.25 34.4479 142.518 34.0634C142.878 33.5525 143.032 33.0416 143.032 32.3561C143.032 31.6403 142.865 31.1117 142.473 30.5907C141.942 29.8825 141.115 29.4221 140.103 29.2729C139.769 29.2223 139.013 29.2223 138.674 29.2729ZM139.721 30.0949C140.427 30.1632 140.976 30.3909 141.406 30.7981C141.714 31.0864 141.901 31.3874 142.013 31.7769C142.061 31.9439 142.071 32.0374 142.071 32.3561C142.071 32.7507 142.056 32.8418 141.939 33.1604C141.583 34.1266 140.379 34.7438 139.086 34.6224C138.34 34.5516 137.786 34.3138 137.341 33.8737C136.919 33.4538 136.721 32.9733 136.721 32.3587C136.721 31.5543 137.053 30.9701 137.784 30.4895C138.077 30.2947 138.575 30.1379 139.036 30.0949C139.364 30.0646 139.415 30.0646 139.721 30.0949Z" fill="#006069"/>
<path d="M133.294 29.3893C133.286 29.407 133.284 30.7475 133.286 32.3688L133.294 35.3154H133.749H134.204V32.3435V29.3716L133.754 29.364C133.41 29.3589 133.301 29.364 133.294 29.3893Z" fill="#006069"/>
<path d="M57.9888 32.3487L57.9964 35.3155L60.8773 35.3231C63.0146 35.3257 63.7658 35.3206 63.7936 35.3004C63.8214 35.2776 63.8265 35.1865 63.8214 34.8754L63.8138 34.4809L61.368 34.4733L58.9196 34.4682V33.5324V32.5965L60.4321 32.5915L61.9421 32.5839L61.9497 32.1615L61.9548 31.7366L60.4448 31.7315L58.9323 31.7239L58.9247 30.9828L58.9196 30.2443H61.2339H63.5482V29.8143V29.3843H60.766H57.9838L57.9888 32.3487Z" fill="#006069"/>
<path d="M65.1592 29.4019C65.1365 29.4221 65.1365 35.2319 65.1567 35.2876C65.1694 35.323 65.2326 35.328 65.5968 35.328C65.9256 35.328 66.0268 35.3204 66.0496 35.2926C66.0698 35.2673 66.0774 34.721 66.0723 33.2312C66.0673 31.8123 66.0723 31.2053 66.0926 31.2103C66.1052 31.2154 66.8514 32.0248 67.7467 33.0137C68.6421 34.0002 69.4818 34.9259 69.6134 35.07L69.8536 35.3306L70.0838 35.323L70.314 35.3154L70.3216 32.3485L70.3266 29.3842H69.8714H69.4161V31.4633V33.5449L69.2947 33.4184C69.2289 33.3476 68.3816 32.4117 67.4103 31.3368L65.6449 29.3842H65.4097C65.2807 29.3842 65.1668 29.3918 65.1592 29.4019Z" fill="#006069"/>
<path d="M71.2676 29.7942L71.2752 30.2065L72.4893 30.2115C73.157 30.2166 73.7185 30.2191 73.7362 30.2191C73.759 30.2191 73.7666 30.7452 73.7666 32.7611V35.303L73.8248 35.3157C73.8551 35.3233 74.0625 35.3258 74.2851 35.3233L74.6898 35.3157L74.6974 32.7661C74.7024 30.7553 74.71 30.2191 74.7353 30.2191C74.7505 30.2191 75.312 30.2166 75.9797 30.2115L77.1938 30.2065L77.2014 29.7942L77.2064 29.3845H74.2345H71.2626L71.2676 29.7942Z" fill="#006069"/>
<path d="M79.5005 29.402C79.4727 29.4475 79.1059 30.1658 78.6481 31.0662C78.38 31.5949 78.0562 32.2323 77.9273 32.4827C77.7983 32.7331 77.434 33.4488 77.1179 34.0761C76.7992 34.7009 76.5285 35.2295 76.5159 35.2472C76.4603 35.318 76.5412 35.3281 77.0041 35.3231L77.4694 35.3155L77.8387 34.5946C78.0411 34.1975 78.2156 33.8586 78.2257 33.8409C78.2409 33.8181 78.6051 33.8105 79.8091 33.8105H81.3747L81.6706 34.3973C81.9868 35.0221 82.1031 35.2447 82.1461 35.2952C82.1638 35.3205 82.2928 35.3281 82.6343 35.3281C83.0896 35.3281 83.1604 35.3155 83.1047 35.2447C83.0921 35.227 82.9075 34.8728 82.695 34.4555C82.4825 34.0382 82.26 33.6057 82.2018 33.4944C82.1436 33.3831 81.921 32.9506 81.7086 32.5332C81.4961 32.1159 81.2558 31.648 81.1774 31.4962C81.099 31.3419 80.8587 30.8765 80.6463 30.4592C80.4313 30.0419 80.2213 29.6321 80.1758 29.5487L80.0949 29.3969L79.804 29.3893C79.6421 29.3868 79.5055 29.3918 79.5005 29.402ZM80.4034 31.9211C80.7044 32.5181 80.9498 33.0087 80.9498 33.0163C80.9498 33.0214 80.4313 33.0265 79.7989 33.0265C79.1666 33.0265 78.6481 33.0189 78.6481 33.0113C78.6481 33.0037 78.7215 32.8595 78.81 32.6901C79.0401 32.2449 79.3968 31.5519 79.6092 31.132C79.7585 30.8361 79.7964 30.7754 79.8242 30.8032C79.8419 30.8234 80.1025 31.3268 80.4034 31.9211Z" fill="#006069"/>
<path d="M84.0404 32.3486L84.048 35.3154H86.7038H89.3595V34.8981V34.4808L87.159 34.4681L84.9585 34.4555L84.9509 31.9186L84.9459 29.3842H84.4906H84.0353L84.0404 32.3486Z" fill="#006069"/>
<path d="M98.23 32.3486L98.2376 35.3154H99.7552C101.376 35.3154 101.47 35.3104 101.956 35.1839C103.081 34.8905 103.843 34.0862 104.045 32.9758C104.096 32.6925 104.09 31.9793 104.032 31.7162C103.878 30.9878 103.521 30.4313 102.932 29.9938C102.596 29.7459 102.183 29.5663 101.685 29.455C101.462 29.4044 101.364 29.3994 99.8361 29.3918L98.225 29.3817L98.23 32.3486ZM101.576 30.315C102.325 30.5274 102.856 31.0358 103.056 31.7365C103.134 32.0046 103.155 32.5382 103.096 32.8215C102.937 33.6081 102.459 34.1342 101.708 34.3518C101.366 34.4504 101.076 34.4706 100.071 34.4631L99.1482 34.4555L99.1406 32.3814C99.1381 31.2407 99.1406 30.2922 99.1482 30.2745C99.1583 30.2467 99.3733 30.2442 100.266 30.2492C101.323 30.2593 101.384 30.2619 101.576 30.315Z" fill="#006069"/>
<path d="M105.596 29.4171C105.591 29.4348 105.588 30.4642 105.591 31.701L105.601 33.9496L105.656 34.1393C105.806 34.6249 106.081 34.9588 106.496 35.1586C106.898 35.3533 107.288 35.4343 108.163 35.5076C108.517 35.5355 108.919 35.5152 109.493 35.4393C110.596 35.2926 111.155 34.8879 111.383 34.0685C111.436 33.8762 111.438 33.8332 111.446 31.6504C111.454 29.842 111.451 29.4221 111.423 29.4069C111.383 29.3791 110.591 29.3791 110.551 29.4044C110.528 29.4196 110.518 29.9229 110.513 31.5467C110.505 33.5272 110.5 33.6815 110.457 33.8105C110.384 34.0356 110.303 34.1722 110.181 34.2834C110.045 34.4099 109.976 34.4453 109.749 34.5161C109.21 34.6831 107.918 34.6907 107.318 34.5313C106.888 34.4175 106.686 34.2101 106.557 33.7599C106.514 33.6081 106.511 33.4311 106.496 31.4961L106.483 29.3968L106.046 29.3892C105.699 29.3842 105.606 29.3892 105.596 29.4171Z" fill="#006069"/>
<path d="M123.475 29.4146C123.462 29.4323 123.225 29.8901 122.949 30.4339C122.673 30.9752 122.327 31.6581 122.177 31.9515C122.028 32.2424 121.727 32.8342 121.507 33.2667C121.287 33.6967 120.968 34.3265 120.796 34.6629C120.624 34.9968 120.483 35.2851 120.483 35.3003C120.483 35.3205 120.627 35.3281 120.946 35.3281C121.358 35.3281 121.416 35.3231 121.449 35.2826C121.469 35.2598 121.651 34.9184 121.851 34.5238L122.213 33.8105H123.773C124.99 33.8105 125.339 33.8181 125.357 33.8409C125.372 33.8586 125.547 34.1925 125.744 34.582C125.944 34.9715 126.118 35.2978 126.133 35.3079C126.166 35.3307 127.069 35.3357 127.092 35.3129C127.102 35.3028 126.993 35.0727 126.852 34.7995C126.328 33.7827 126.149 33.4311 125.883 32.9126C125.734 32.6192 125.511 32.1867 125.39 31.9515C125.142 31.4709 124.633 30.4769 124.3 29.8269L124.08 29.3969L123.789 29.3893C123.576 29.3843 123.493 29.3918 123.475 29.4146ZM124.067 31.3065C124.52 32.1867 124.909 32.9708 124.909 32.9986C124.909 33.0189 124.575 33.0265 123.771 33.0265C122.61 33.0265 122.575 33.0239 122.656 32.9379C122.666 32.9228 122.828 32.6167 123.012 32.255C123.197 31.8933 123.384 31.5291 123.429 31.4456C123.475 31.3622 123.571 31.175 123.642 31.0308C123.715 30.8867 123.784 30.7779 123.794 30.7905C123.806 30.8032 123.928 31.0359 124.067 31.3065Z" fill="#006069"/>
<path d="M126.407 29.7941L126.414 30.2064L127.628 30.2115C128.296 30.2165 128.857 30.2191 128.873 30.2191C128.898 30.2191 128.906 30.7553 128.911 32.7661L128.918 35.3156L129.358 35.3232C129.695 35.3283 129.803 35.3207 129.821 35.2979C129.831 35.2802 129.841 34.1294 129.841 32.7408C129.841 30.7401 129.849 30.2191 129.874 30.2191C129.889 30.2191 130.436 30.2191 131.083 30.2191C131.731 30.2191 132.28 30.214 132.302 30.2039C132.34 30.1912 132.345 30.1356 132.345 29.7866V29.3844H129.373H126.401L126.407 29.7941Z" fill="#006069"/>
<path d="M144.575 29.4148C144.567 29.4326 144.565 30.768 144.567 32.3817L144.575 35.3157H145.017H145.46L145.473 33.2442L145.485 31.1727L145.855 31.5749C146.057 31.7949 146.892 32.7156 147.711 33.6211C148.528 34.5241 149.216 35.2803 149.236 35.2955C149.282 35.3309 149.664 35.341 149.717 35.3081C149.742 35.2904 149.747 34.6809 149.742 32.3413L149.734 29.3971L149.287 29.3896L148.837 29.3845V31.4459C148.837 32.7738 148.829 33.5073 148.811 33.5073C148.799 33.5073 148.743 33.4592 148.69 33.3985C148.558 33.2569 146.512 30.9957 145.703 30.0978L145.058 29.3845H144.823C144.656 29.3845 144.582 29.3946 144.575 29.4148Z" fill="#006069"/>
</svg>
